<?xml version="1.0" standalone="no"?>
<!DOCTYPE svg PUBLIC "-//W3C//DTD SVG 20010904//EN"
 "http://www.w3.org/TR/2001/REC-SVG-20010904/DTD/svg10.dtd">
<svg version="1.0" xmlns="http://www.w3.org/2000/svg"
 width="511.000000pt" height="511.000000pt" viewBox="0 0 511.000000 511.000000"
 preserveAspectRatio="xMidYMid meet">

<g transform="translate(0.000000,511.000000) scale(0.100000,-0.100000)"
fill="#000000" stroke="none">
<path d="M2430 5013 c-558 -40 -1021 -204 -1430 -507 -136 -101 -386 -349
-484 -481 -340 -454 -507 -959 -506 -1524 1 -336 88 -696 245 -1016 110 -224
249 -423 335 -478 l27 -17 44 48 c116 127 171 194 151 183 -34 -18 -145 -13
-273 14 -66 14 -125 27 -130 30 -24 15 -6 78 52 189 33 64 65 119 71 122 5 4
1 15 -11 28 -44 47 -156 396 -188 582 -25 152 -25 563 0 709 60 343 196 639
452 981 153 203 423 432 662 560 492 264 1068 337 1609 205 425 -105 829 -346
1121 -671 98 -110 228 -285 281 -380 106 -189 212 -470 247 -652 54 -284 32
-720 -50 -1002 -88 -299 -275 -619 -501 -856 l-75 -78 44 -25 c50 -29 123
-105 137 -142 5 -14 14 -25 20 -25 22 0 177 167 266 285 304 405 456 811 485
1295 27 459 -94 960 -327 1357 -258 440 -579 750 -1006 972 -176 92 -279 133
-462 186 -278 80 -597 122 -806 108z"/>
<path d="M2763 4018 c-11 -13 -46 -63 -77 -113 -74 -116 -94 -136 -194 -202
-63 -42 -97 -73 -136 -127 -47 -63 -61 -74 -115 -95 -87 -34 -241 -136 -241
-159 0 -23 45 -65 90 -83 22 -9 71 -14 133 -14 113 1 110 12 42 -130 -79 -170
-226 -333 -486 -540 -249 -200 -326 -294 -363 -445 -8 -36 -22 -141 -31 -233
-17 -177 -47 -315 -90 -412 -20 -46 -22 -56 -9 -51 9 3 66 18 127 31 126 29
163 49 249 136 102 105 151 187 218 368 25 69 50 126 57 128 7 3 14 -16 18
-52 4 -31 13 -59 19 -61 19 -7 153 24 196 46 52 26 66 50 80 137 18 112 30 98
30 -34 0 -98 20 -575 24 -579 0 -1 45 -4 99 -7 l97 -5 0 156 c0 210 16 417 39
516 11 45 22 100 26 124 11 67 27 55 40 -32 4 -25 10 -46 14 -46 4 0 25 19 48
43 44 45 93 129 113 190 8 25 17 37 30 37 32 0 62 113 50 187 -6 32 -10 62
-10 68 0 5 19 -10 43 -33 23 -23 47 -42 51 -42 18 0 -1 263 -27 381 -54 242
-45 372 32 474 80 106 95 161 50 186 -17 8 -28 3 -71 -36 -30 -27 -55 -42 -60
-37 -6 6 -3 45 6 98 27 154 17 231 -35 268 -32 22 -52 20 -76 -6z m-183 -405
c-1 -5 -21 -30 -45 -58 -39 -43 -45 -47 -45 -26 0 13 15 38 34 57 32 32 57 44
56 27z"/>
<path d="M3535 3992 c-164 -61 -261 -181 -283 -351 -17 -124 21 -234 114 -331
102 -107 192 -144 337 -138 80 3 101 7 157 35 92 45 153 108 200 204 49 101
57 162 36 264 -30 144 -118 261 -231 305 -84 33 -257 39 -330 12z"/>
<path d="M875 2326 c-24 -18 -22 -73 4 -99 l20 -20 -6 21 c-7 28 21 72 46 72
11 0 21 6 23 12 4 10 10 10 31 1 15 -7 27 -10 27 -7 0 10 -69 34 -98 34 -15 0
-36 -6 -47 -14z"/>
<path d="M2757 2210 c-10 -16 -47 -53 -82 -82 l-65 -53 0 -191 c0 -105 3 -232
6 -282 l7 -92 31 0 c17 0 48 -4 69 -9 20 -5 39 -6 42 -2 8 14 36 672 29 707
-8 42 -15 43 -37 4z"/>
<path d="M1342 2204 c-29 -8 -65 -20 -81 -29 -61 -31 -193 -139 -265 -216 -60
-66 -247 -324 -399 -552 l-27 -42 27 -8 c43 -13 200 0 281 23 140 39 210 87
288 195 62 88 92 161 125 310 36 161 63 244 94 289 13 20 21 37 17 40 -4 2
-31 -3 -60 -10z"/>
<path d="M2031 1891 l-64 -17 -32 -69 c-18 -39 -73 -124 -124 -189 -50 -66
-90 -120 -88 -122 1 -1 22 2 47 6 25 5 68 9 95 10 l50 0 56 73 c63 82 101 151
135 247 31 89 32 88 -75 61z"/>
<path d="M1940 1394 c-19 -2 -78 -9 -130 -15 -82 -10 -227 -37 -415 -79 -59
-13 -410 -130 -480 -160 -27 -11 -77 -41 -112 -66 -35 -25 -88 -57 -118 -70
-30 -14 -55 -32 -55 -39 0 -17 83 -110 160 -181 138 -126 232 -195 400 -296
235 -141 397 -212 661 -287 188 -53 302 -74 504 -92 367 -32 886 70 1272 251
174 81 397 224 512 326 l43 39 -77 65 c-263 220 -439 318 -802 444 -128 44
-437 109 -648 136 -152 20 -618 36 -715 24z m1028 -354 c169 -30 248 -59 347
-126 80 -54 138 -115 116 -122 -5 -2 -46 13 -92 32 -163 67 -315 106 -606 156
-147 25 -195 38 -190 53 10 31 267 35 425 7z"/>
</g>
</svg>
